<svg xmlns="http://www.w3.org/2000/svg" viewBox="0 0 24 24" fill="none" stroke="#000000" stroke-linecap="round" stroke-linejoin="round" id="Github--Streamline-Lucide" height="24" width="24">
  <desc>
    Github Streamline Icon: https://streamlinehq.com
  </desc>
  <path d="M15 22v-4a4.8 4.8 0 0 0 -1 -3.5c3 0 6 -2 6 -5.5 0.08 -1.25 -0.27 -2.48 -1 -3.5 0.28 -1.15 0.28 -2.35 0 -3.5 0 0 -1 0 -3 1.5 -2.64 -0.5 -5.36 -0.5 -8 0C6 2 5 2 5 2c-0.3 1.15 -0.3 2.35 0 3.5A5.403 5.403 0 0 0 4 9c0 3.5 3 5.5 6 5.5 -0.39 0.49 -0.68 1.05 -0.85 1.65 -0.17 0.6 -0.22 1.23 -0.15 1.85v4" stroke-width="2"></path>
  <path d="M9 18c-4.51 2 -5 -2 -7 -2" stroke-width="2"></path>
</svg>