<?xml version="1.0" encoding="UTF-8"?>
<svg version="1.1" xmlns="http://www.w3.org/2000/svg" width="48" height="48">
<path d="M0 0 C1.19496094 -0.00386719 2.38992188 -0.00773438 3.62109375 -0.01171875 C4.87019531 -0.00011719 6.11929687 0.01148437 7.40625 0.0234375 C8.65535156 0.01183594 9.90445312 0.00023438 11.19140625 -0.01171875 C12.98384766 -0.00591797 12.98384766 -0.00591797 14.8125 0 C15.90884766 0.00338379 17.00519531 0.00676758 18.13476562 0.01025391 C20.90625 0.3984375 20.90625 0.3984375 22.77539062 1.72412109 C24.47141247 4.23520007 24.1025664 6.45369153 23.90625 9.3984375 C25.55625 9.0684375 27.20625 8.7384375 28.90625 8.3984375 C28.24625 7.7384375 27.58625 7.0784375 26.90625 6.3984375 C26.90625 5.4084375 26.90625 4.4184375 26.90625 3.3984375 C31.15844775 3.87090392 33.27939725 6.17116127 35.90625 9.3984375 C36.10811821 12.6283289 34.65531457 13.68899431 32.53125 16.1484375 C29.90625 18.3984375 29.90625 18.3984375 26.90625 18.3984375 C27.78125 14.5234375 27.78125 14.5234375 28.90625 13.3984375 C26.43125 12.9034375 26.43125 12.9034375 23.90625 12.3984375 C23.90625 15.0384375 23.90625 17.6784375 23.90625 20.3984375 C22.91625 20.3984375 21.92625 20.3984375 20.90625 20.3984375 C20.57625 15.1184375 20.24625 9.8384375 19.90625 4.3984375 C11.65625 4.3984375 3.40625 4.3984375 -5.09375 4.3984375 C-5.42375 6.0484375 -5.75375 7.6984375 -6.09375 9.3984375 C-1.14375 9.3984375 3.80625 9.3984375 8.90625 9.3984375 C8.90625 10.3884375 8.90625 11.3784375 8.90625 12.3984375 C3.95625 12.3984375 -0.99375 12.3984375 -6.09375 12.3984375 C-5.76375 22.9584375 -5.43375 33.5184375 -5.09375 44.3984375 C3.15625 44.3984375 11.40625 44.3984375 19.90625 44.3984375 C20.23625 43.4084375 20.56625 42.4184375 20.90625 41.3984375 C21.89625 41.3984375 22.88625 41.3984375 23.90625 41.3984375 C23.15625 46.1484375 23.15625 46.1484375 20.90625 48.3984375 C16.44470192 48.85946823 11.95134362 48.72242544 7.46875 48.7109375 C6.21513672 48.72705078 4.96152344 48.74316406 3.66992188 48.75976562 C2.47044922 48.76041016 1.27097656 48.76105469 0.03515625 48.76171875 C-1.06755615 48.76469971 -2.17026855 48.76768066 -3.30639648 48.77075195 C-6.09375 48.3984375 -6.09375 48.3984375 -7.95849609 47.34521484 C-9.71979379 44.32487338 -9.4611135 41.28049832 -9.38671875 37.88671875 C-9.38247391 37.15849411 -9.37822906 36.43026947 -9.37385559 35.67997742 C-9.35707733 33.35658623 -9.31942855 31.034066 -9.28125 28.7109375 C-9.26620197 27.13477816 -9.25251377 25.55860521 -9.24023438 23.98242188 C-9.20717685 20.12075873 -9.15540194 16.25974572 -9.09375 12.3984375 C-10.08375 12.3984375 -11.07375 12.3984375 -12.09375 12.3984375 C-12.09375 11.4084375 -12.09375 10.4184375 -12.09375 9.3984375 C-11.10375 9.3984375 -10.11375 9.3984375 -9.09375 9.3984375 C-9.155625 8.4703125 -9.2175 7.5421875 -9.28125 6.5859375 C-9.09375 3.3984375 -9.09375 3.3984375 -7.96289062 1.72412109 C-5.2869927 -0.17375322 -3.25869773 0.01005771 0 0 Z " fill="#000000" transform="translate(12.09375,-0.3984375)"/>
<path d="M0 0 C1.65 0 3.3 0 5 0 C5.67528223 1.57967807 6.33989694 3.16391903 7 4.75 C7.37125 5.63171875 7.7425 6.5134375 8.125 7.421875 C9 10 9 10 9 14 C8.01 14 7.02 14 6 14 C5.67 13.01 5.34 12.02 5 11 C3.35 10.67 1.7 10.34 0 10 C-0.33 11.32 -0.66 12.64 -1 14 C-1.99 14 -2.98 14 -4 14 C-3.52188823 12.22888156 -3.0424722 10.45811517 -2.5625 8.6875 C-2.29566406 7.70136719 -2.02882813 6.71523438 -1.75390625 5.69921875 C-1.21920575 3.78482474 -0.62855462 1.88566385 0 0 Z M2 4 C1.67 5.32 1.34 6.64 1 8 C1.99 8 2.98 8 4 8 C3.67 6.68 3.34 5.36 3 4 C2.67 4 2.34 4 2 4 Z " fill="#000000" transform="translate(15,23)"/>
<path d="M0 0 C3.3 0 6.6 0 10 0 C11.125 6.75 11.125 6.75 10 9 C7.69 9 5.38 9 3 9 C3 10.65 3 12.3 3 14 C2.01 14 1.02 14 0 14 C0 9.38 0 4.76 0 0 Z M3 2 C3 3.65 3 5.3 3 7 C4.65 6.67 6.3 6.34 8 6 C7.67 4.68 7.34 3.36 7 2 C5.68 2 4.36 2 3 2 Z " fill="#000000" transform="translate(26,23)"/>
<path d="M0 0 C2.97 0 5.94 0 9 0 C9 0.66 9 1.32 9 2 C8.01 2 7.02 2 6 2 C6 5.3 6 8.6 6 12 C6.99 12 7.98 12 9 12 C9 12.66 9 13.32 9 14 C6.03 14 3.06 14 0 14 C0 13.34 0 12.68 0 12 C0.99 12 1.98 12 3 12 C3 8.7 3 5.4 3 2 C2.01 2 1.02 2 0 2 C0 1.34 0 0.68 0 0 Z " fill="#000000" transform="translate(39,23)"/>
</svg>
